<svg width="19" height="18" viewBox="0 0 19 18" fill="none" xmlns="http://www.w3.org/2000/svg">
<path d="M10.5304 17.7043L17.5134 10.3688C18.2184 9.62628 18.2184 8.4187 17.5134 7.68365L10.5079 0.303173C10.1329 -0.0868523 9.51788 -0.101853 9.12785 0.26567C8.92534 0.460683 8.82783 0.715699 8.82783 0.970716C8.82783 1.21073 8.91784 1.45075 9.09785 1.64576L15.1582 8.02867L0.974828 8.02867C0.434793 8.02867 -0.000234989 8.4637 -0.000235013 9.00373C-0.000235036 9.54377 0.434792 9.9788 0.974828 9.9788L15.1882 9.9788L9.12035 16.3542C8.75283 16.7442 8.76033 17.3593 9.15785 17.7343C9.54788 18.1018 10.1629 18.0868 10.5379 17.6968L10.5304 17.7043Z" fill="white"/>
</svg>
