<svg width="16" height="16" viewBox="0 0 16 16" fill="none" xmlns="http://www.w3.org/2000/svg">
<path d="M13.5564 4.0231H10.7664C10.7198 2.53977 9.5031 1.34644 8.00643 1.34644C6.50977 1.34644 5.2931 2.53977 5.24977 4.0231H2.4431C2.2031 4.0231 2.00977 4.21644 2.00977 4.45644C2.00977 4.69644 2.2031 4.88977 2.4431 4.88977H3.33643V12.5164C3.33643 13.7098 4.2031 14.6798 5.26977 14.6798H10.7531C11.8198 14.6798 12.6864 13.7098 12.6864 12.5164V4.88977H13.5531C13.7931 4.88977 13.9864 4.69644 13.9864 4.45644C13.9864 4.21644 13.7931 4.0231 13.5531 4.0231H13.5564ZM8.00643 2.2131C9.0231 2.2131 9.8531 3.01977 9.89643 4.0231H6.1131C6.15643 3.01644 6.98643 2.2131 8.0031 2.2131H8.00643ZM11.8198 12.5164C11.8198 13.2331 11.3431 13.8131 10.7531 13.8131H5.2731C4.68643 13.8131 4.20643 13.2298 4.20643 12.5164V4.88977H11.8198V12.5164Z" fill="#242424"/>
<path d="M8.01309 12.0134C8.25309 12.0134 8.44642 11.8201 8.44642 11.5801V7.10008C8.44642 6.86008 8.25309 6.66675 8.01309 6.66675C7.77309 6.66675 7.57976 6.86008 7.57976 7.10008V11.5801C7.57976 11.8201 7.77309 12.0134 8.01309 12.0134Z" fill="#242424"/>
<path d="M10.3364 12.0134C10.5764 12.0134 10.7698 11.8201 10.7698 11.5801V7.10008C10.7698 6.86008 10.5764 6.66675 10.3364 6.66675C10.0964 6.66675 9.90309 6.86008 9.90309 7.10008V11.5801C9.90309 11.8201 10.0964 12.0134 10.3364 12.0134Z" fill="#242424"/>
<path d="M5.67642 12.0134C5.91642 12.0134 6.10976 11.8201 6.10976 11.5801V7.10008C6.10976 6.86008 5.91642 6.66675 5.67642 6.66675C5.43642 6.66675 5.24309 6.86008 5.24309 7.10008V11.5801C5.24309 11.8201 5.43642 12.0134 5.67642 12.0134Z" fill="#242424"/>
</svg>
