<svg width="16" height="16" viewBox="0 0 16 16" fill="none" xmlns="http://www.w3.org/2000/svg">
<path d="M8.61335 8.01628L13.64 2.98961C13.81 2.81961 13.81 2.54628 13.64 2.37628C13.47 2.20628 13.1967 2.20628 13.0267 2.37628L8.00001 7.40295L2.97335 2.37628C2.80335 2.20628 2.53001 2.20628 2.36001 2.37628C2.19001 2.54628 2.19001 2.81961 2.36001 2.98961L7.38668 8.01628L2.36001 13.0429C2.19001 13.2129 2.19001 13.4863 2.36001 13.6563C2.44335 13.7396 2.55668 13.7829 2.66668 13.7829C2.77668 13.7829 2.89001 13.7396 2.97335 13.6563L8.00001 8.62961L13.0133 13.6429C13.0967 13.7263 13.21 13.7696 13.32 13.7696C13.43 13.7696 13.5433 13.7263 13.6267 13.6429C13.7967 13.4729 13.7967 13.1996 13.6267 13.0296L8.61335 8.01628Z" fill="#242424"/>
</svg>
