<svg width="20" height="20" viewBox="0 0 20 20" fill="none" xmlns="http://www.w3.org/2000/svg">
<path d="M10 0C4.475 0 0 4.475 0 10C0 15.525 4.475 20 10 20C15.525 20 20 15.525 20 10C20 4.475 15.525 0 10 0ZM10.08 4.015C10.63 4.015 11.08 4.465 11.08 5.015C11.08 5.565 10.63 6.015 10.08 6.015C9.53 6.015 9.08 5.565 9.08 5.015C9.08 4.465 9.53 4.015 10.08 4.015ZM12.17 15.815H8.03C7.67 15.815 7.38 15.525 7.38 15.165C7.38 14.805 7.67 14.515 8.03 14.515H9.66V8.625H8.7C8.34 8.625 8.05 8.335 8.05 7.975C8.05 7.615 8.34 7.325 8.7 7.325H10.31C10.67 7.325 10.96 7.615 10.96 7.975V14.515H12.17C12.53 14.515 12.82 14.805 12.82 15.165C12.82 15.525 12.53 15.815 12.17 15.815Z" fill="#001E86"/>
</svg>
