<svg width="16" height="16" viewBox="0 0 16 16" fill="none" xmlns="http://www.w3.org/2000/svg">
<path d="M14.0034 1.99989C13.5534 1.54989 12.9567 1.30322 12.32 1.30322C11.6834 1.30322 11.0867 1.54989 10.6367 1.99989L2.04335 10.5932C1.91335 10.7232 1.82668 10.8966 1.79668 11.0799L1.40668 13.7232C1.37002 13.9666 1.45002 14.2032 1.62335 14.3766C1.77002 14.5232 1.96002 14.5999 2.16335 14.5999C2.20002 14.5999 2.24002 14.5999 2.27668 14.5899L4.92002 14.1999C5.10335 14.1732 5.27668 14.0866 5.40668 13.9566L14 5.36322C14.9267 4.43656 14.9267 2.92656 14 1.99656L14.0034 1.99989ZM4.79668 13.3466L2.28668 13.7166L2.65668 11.2066L10.33 3.53322L12.47 5.67322L4.79668 13.3466ZM13.39 4.75322L13.08 5.06322L10.94 2.92322L11.25 2.61322C11.5367 2.32656 11.9167 2.16989 12.32 2.16989C12.7234 2.16989 13.1034 2.32656 13.39 2.61322C13.6767 2.89989 13.8334 3.27989 13.8334 3.68322C13.8334 4.08656 13.6767 4.46656 13.39 4.75322Z" fill="#242424"/>
</svg>
