<svg width="16" height="16" viewBox="0 0 16 16" fill="none" xmlns="http://www.w3.org/2000/svg">
<path d="M13.5767 7.58314H8.43332V2.4398C8.43332 2.1998 8.23999 2.00647 7.99999 2.00647C7.75999 2.00647 7.56666 2.1998 7.56666 2.4398V7.58314H2.42332C2.18332 7.58314 1.98999 7.77647 1.98999 8.01647C1.98999 8.25647 2.18332 8.4498 2.42332 8.4498H7.56666V13.5931C7.56666 13.8331 7.75999 14.0265 7.99999 14.0265C8.23999 14.0265 8.43332 13.8331 8.43332 13.5931V8.4498H13.5767C13.8167 8.4498 14.01 8.25647 14.01 8.01647C14.01 7.77647 13.8167 7.58314 13.5767 7.58314Z" fill="#242424"/>
</svg>
