<svg width="24" height="24" viewBox="0 0 24 24" fill="none" xmlns="http://www.w3.org/2000/svg">
<path d="M12 2C6.485 2 2 6.485 2 12C2 17.515 6.485 22 12 22C17.515 22 22 17.515 22 12C22 6.485 17.515 2 12 2ZM16.515 9.28L11.245 16.15C11.115 16.315 10.925 16.405 10.73 16.405C10.595 16.405 10.455 16.36 10.34 16.275L7.61 14.205C7.325 13.99 7.27 13.58 7.485 13.295C7.7 13.01 8.11 12.955 8.395 13.17L10.61 14.85L15.485 8.495C15.705 8.21 16.11 8.155 16.395 8.375C16.68 8.595 16.735 9 16.515 9.285V9.28Z" fill="#006626"/>
</svg>
