<svg width="24" height="24" viewBox="0 0 24 24" fill="none" xmlns="http://www.w3.org/2000/svg">
<path d="M21.74 18.0197L13.69 4.03469C13.335 3.42469 12.705 3.05469 12 3.05469C11.295 3.05469 10.66 3.41969 10.31 4.03469L2.26 18.0197C1.91 18.6297 1.91 19.3597 2.26 19.9697C2.61 20.5797 3.245 20.9447 3.95 20.9447H20.05C20.755 20.9447 21.385 20.5797 21.74 19.9697C22.095 19.3597 22.095 18.6297 21.74 18.0197ZM12 17.9997C11.45 17.9997 11 17.5497 11 16.9997C11 16.4497 11.45 15.9997 12 15.9997C12.55 15.9997 13 16.4497 13 16.9997C13 17.5497 12.55 17.9997 12 17.9997ZM12.65 9.65969V14.3497C12.65 14.7097 12.36 14.9997 12 14.9997C11.64 14.9997 11.35 14.7097 11.35 14.3497V9.65969C11.35 9.29969 11.64 9.00969 12 9.00969C12.36 9.00969 12.65 9.29969 12.65 9.65969Z" fill="#AC4600"/>
</svg>
